<?xml version="1.0" encoding="utf-8"?>
<!-- Generator: Adobe Illustrator 24.0.1, SVG Export Plug-In . SVG Version: 6.00 Build 0)  -->
<svg version="1.1" id="Layer_1" xmlns="http://www.w3.org/2000/svg" xmlns:xlink="http://www.w3.org/1999/xlink" x="0px" y="0px"
	 viewBox="0 0 250 250" style="enable-background:new 0 0 250 250;" xml:space="preserve">
<style type="text/css">
	.st0{fill:#CBCBBF;}
	.st1{clip-path:url(#SVGID_3_);fill:#CBCBBF;}
	.st2{clip-path:url(#SVGID_5_);fill:#AC1D36;}
	.st3{clip-path:url(#SVGID_7_);fill:#00599B;}
	.st4{clip-path:url(#SVGID_9_);fill:#CBCBBF;}
	.st5{clip-path:url(#SVGID_11_);fill:#030F4B;}
	.st6{clip-path:url(#SVGID_13_);fill:#AC1D36;}
	.st7{clip-path:url(#SVGID_15_);fill:#FFF9DF;}
</style>
<g>
	<g>
		<g>
			<rect id="SVGID_1_" class="st0" width="250" height="250"/>
		</g>
		<g>
			<defs>
				<rect id="SVGID_2_" width="250" height="250"/>
			</defs>
			<clipPath id="SVGID_3_">
				<use xlink:href="#SVGID_2_"  style="overflow:visible;"/>
			</clipPath>
			<polygon class="st1" points="125,0 250,125 125,250 0,125 125,0 0,0 0,250 250,250 250,0 			"/>
		</g>
		<g>
			<defs>
				<rect id="SVGID_4_" width="250" height="250"/>
			</defs>
			<clipPath id="SVGID_5_">
				<use xlink:href="#SVGID_4_"  style="overflow:visible;"/>
			</clipPath>
			<polygon class="st2" points="125,335.7 335.7,125 125,-85.7 125,-85.7 -85.7,125 			"/>
		</g>
		<g>
			<defs>
				
					<rect id="SVGID_6_" x="0" y="0" transform="matrix(0.7071 -0.7071 0.7071 0.7071 -51.7777 125.0013)" width="250" height="250"/>
			</defs>
			<clipPath id="SVGID_7_">
				<use xlink:href="#SVGID_6_"  style="overflow:visible;"/>
			</clipPath>
			
				<rect x="-2.6" y="-2.6" transform="matrix(0.7071 -0.7071 0.7071 0.7071 -51.7924 125.0366)" class="st3" width="255.2" height="255.3"/>
		</g>
		<g>
			<defs>
				
					<rect id="SVGID_8_" x="0" y="0" transform="matrix(0.7071 -0.7071 0.7071 0.7071 -51.7789 125.0018)" width="250" height="250"/>
			</defs>
			<clipPath id="SVGID_9_">
				<use xlink:href="#SVGID_8_"  style="overflow:visible;"/>
			</clipPath>
			
				<rect x="17.9" y="17.9" transform="matrix(0.7071 -0.7071 0.7071 0.7071 -51.7582 125.0518)" class="st4" width="214.3" height="214.3"/>
		</g>
		<g>
			<defs>
				
					<rect id="SVGID_10_" x="0" y="0" transform="matrix(0.7071 -0.7071 0.7071 0.7071 -51.7787 125.0021)" width="250" height="250"/>
			</defs>
			<clipPath id="SVGID_11_">
				<use xlink:href="#SVGID_10_"  style="overflow:visible;"/>
			</clipPath>
			
				<rect x="36.6" y="36.6" transform="matrix(0.7071 -0.7071 0.7071 0.7071 -51.7787 125.0021)" class="st5" width="176.8" height="176.8"/>
		</g>
		<g>
			<defs>
				
					<rect id="SVGID_12_" x="0" y="0" transform="matrix(0.7071 -0.7071 0.7071 0.7071 -51.7789 125.002)" width="250" height="250"/>
			</defs>
			<clipPath id="SVGID_13_">
				<use xlink:href="#SVGID_12_"  style="overflow:visible;"/>
			</clipPath>
			
				<rect x="58.2" y="58.2" transform="matrix(0.7071 -0.7071 0.7071 0.7071 -51.7789 125.002)" class="st6" width="133.6" height="133.6"/>
		</g>
		<g>
			<defs>
				
					<rect id="SVGID_14_" x="0" y="0" transform="matrix(0.7071 -0.7071 0.7071 0.7071 -51.778 125.0019)" width="250" height="250"/>
			</defs>
			<clipPath id="SVGID_15_">
				<use xlink:href="#SVGID_14_"  style="overflow:visible;"/>
			</clipPath>
			
				<rect x="80.9" y="81" transform="matrix(0.7071 -0.7071 0.7071 0.7071 -51.7987 124.9519)" class="st7" width="88.1" height="88.1"/>
		</g>
	</g>
</g>
</svg>
