<?xml version="1.0" encoding="utf-8"?>
<!-- Generator: Adobe Illustrator 24.0.1, SVG Export Plug-In . SVG Version: 6.00 Build 0)  -->
<svg version="1.1" id="Layer_1" xmlns="http://www.w3.org/2000/svg" xmlns:xlink="http://www.w3.org/1999/xlink" x="0px" y="0px"
	 viewBox="0 0 250 250" style="enable-background:new 0 0 250 250;" xml:space="preserve">
<style type="text/css">
	.st0{fill:#CBCBBF;}
	.st1{fill:#030F4B;}
	.st2{fill:#FFF9DF;}
	.st3{clip-path:url(#SVGID_2_);}
	.st4{clip-path:url(#SVGID_4_);}
	.st5{fill:none;stroke:#FFF9DF;stroke-width:2.88;}
	.st6{clip-path:url(#SVGID_6_);}
	.st7{clip-path:url(#SVGID_8_);}
	.st8{clip-path:url(#SVGID_10_);}
	.st9{clip-path:url(#SVGID_12_);}
	.st10{clip-path:url(#SVGID_14_);}
	.st11{clip-path:url(#SVGID_16_);}
	.st12{clip-path:url(#SVGID_18_);fill:#AC1D36;}
</style>
<rect class="st0" width="250" height="250"/>
<rect class="st1" width="125" height="125"/>
<rect x="29.9" y="32.5" class="st2" width="59.8" height="59.8"/>
<rect x="125" class="st1" width="125" height="125"/>
<g>
	<g>
		<g>
			<defs>
				<rect id="SVGID_1_" x="125" width="125" height="125.1"/>
			</defs>
			<clipPath id="SVGID_2_">
				<use xlink:href="#SVGID_1_"  style="overflow:visible;"/>
			</clipPath>
			<g class="st3">
				<g>
					<g>
						<defs>
							<rect id="SVGID_3_" x="86.1" y="4.9" width="216" height="216"/>
						</defs>
						<clipPath id="SVGID_4_">
							<use xlink:href="#SVGID_3_"  style="overflow:visible;"/>
						</clipPath>
						<g class="st4">
							<line class="st5" x1="96.9" y1="220.2" x2="96.9" y2="437.6"/>
							<line class="st5" x1="140.1" y1="220.2" x2="140.1" y2="437.6"/>
							<line class="st5" x1="183.3" y1="220.2" x2="183.3" y2="437.6"/>
							<line class="st5" x1="226.5" y1="220.2" x2="226.5" y2="437.6"/>
							<line class="st5" x1="269.7" y1="220.2" x2="269.7" y2="437.6"/>
							<line class="st5" x1="118.5" y1="220.2" x2="118.5" y2="437.6"/>
							<line class="st5" x1="161.7" y1="220.2" x2="161.7" y2="437.6"/>
							<line class="st5" x1="204.9" y1="220.2" x2="204.9" y2="437.6"/>
							<line class="st5" x1="248.1" y1="220.2" x2="248.1" y2="437.6"/>
							<line class="st5" x1="291.3" y1="220.2" x2="291.3" y2="437.6"/>
						</g>
					</g>
					<g>
						<defs>
							<rect id="SVGID_5_" x="86.1" y="4.9" width="216" height="216"/>
						</defs>
						<clipPath id="SVGID_6_">
							<use xlink:href="#SVGID_5_"  style="overflow:visible;"/>
						</clipPath>
						<g class="st6">
							<line class="st5" x1="96.9" y1="4.2" x2="96.9" y2="221.7"/>
							<line class="st5" x1="140.1" y1="4.2" x2="140.1" y2="221.7"/>
							<line class="st5" x1="183.3" y1="4.2" x2="183.3" y2="221.7"/>
							<line class="st5" x1="226.5" y1="4.2" x2="226.5" y2="221.7"/>
							<line class="st5" x1="269.7" y1="4.2" x2="269.7" y2="221.7"/>
							<line class="st5" x1="118.5" y1="4.2" x2="118.5" y2="221.7"/>
							<line class="st5" x1="161.7" y1="4.2" x2="161.7" y2="221.7"/>
							<line class="st5" x1="204.9" y1="4.2" x2="204.9" y2="221.7"/>
							<line class="st5" x1="248.1" y1="4.2" x2="248.1" y2="221.7"/>
							<line class="st5" x1="291.3" y1="4.2" x2="291.3" y2="221.7"/>
						</g>
					</g>
					<g>
						<defs>
							<rect id="SVGID_7_" x="86.1" y="4.9" width="216" height="216"/>
						</defs>
						<clipPath id="SVGID_8_">
							<use xlink:href="#SVGID_7_"  style="overflow:visible;"/>
						</clipPath>
						<g class="st7">
							<line class="st5" x1="96.9" y1="-211.8" x2="96.9" y2="5.7"/>
							<line class="st5" x1="140.1" y1="-211.8" x2="140.1" y2="5.7"/>
							<line class="st5" x1="183.3" y1="-211.8" x2="183.3" y2="5.7"/>
							<line class="st5" x1="226.5" y1="-211.8" x2="226.5" y2="5.7"/>
							<line class="st5" x1="269.7" y1="-211.8" x2="269.7" y2="5.7"/>
							<line class="st5" x1="118.5" y1="-211.8" x2="118.5" y2="5.7"/>
							<line class="st5" x1="161.7" y1="-211.8" x2="161.7" y2="5.7"/>
							<line class="st5" x1="204.9" y1="-211.8" x2="204.9" y2="5.7"/>
							<line class="st5" x1="248.1" y1="-211.8" x2="248.1" y2="5.7"/>
							<line class="st5" x1="291.3" y1="-211.8" x2="291.3" y2="5.7"/>
						</g>
					</g>
				</g>
			</g>
		</g>
		<g>
			<defs>
				<rect id="SVGID_9_" x="125" width="125" height="125.1"/>
			</defs>
			<clipPath id="SVGID_10_">
				<use xlink:href="#SVGID_9_"  style="overflow:visible;"/>
			</clipPath>
			<g class="st8">
				<g>
					<g>
						<defs>
							<rect id="SVGID_11_" x="86.1" y="-211.1" width="216" height="216"/>
						</defs>
						<clipPath id="SVGID_12_">
							<use xlink:href="#SVGID_11_"  style="overflow:visible;"/>
						</clipPath>
						<g class="st9">
							<line class="st5" x1="96.9" y1="4.2" x2="96.9" y2="221.7"/>
							<line class="st5" x1="140.1" y1="4.2" x2="140.1" y2="221.7"/>
							<line class="st5" x1="183.3" y1="4.2" x2="183.3" y2="221.7"/>
							<line class="st5" x1="226.5" y1="4.2" x2="226.5" y2="221.7"/>
							<line class="st5" x1="269.7" y1="4.2" x2="269.7" y2="221.7"/>
							<line class="st5" x1="118.5" y1="4.2" x2="118.5" y2="221.7"/>
							<line class="st5" x1="161.7" y1="4.2" x2="161.7" y2="221.7"/>
							<line class="st5" x1="204.9" y1="4.2" x2="204.9" y2="221.7"/>
							<line class="st5" x1="248.1" y1="4.2" x2="248.1" y2="221.7"/>
							<line class="st5" x1="291.3" y1="4.2" x2="291.3" y2="221.7"/>
						</g>
					</g>
					<g>
						<defs>
							<rect id="SVGID_13_" x="86.1" y="-211.1" width="216" height="216"/>
						</defs>
						<clipPath id="SVGID_14_">
							<use xlink:href="#SVGID_13_"  style="overflow:visible;"/>
						</clipPath>
						<g class="st10">
							<line class="st5" x1="96.9" y1="-211.8" x2="96.9" y2="5.7"/>
							<line class="st5" x1="140.1" y1="-211.8" x2="140.1" y2="5.7"/>
							<line class="st5" x1="183.3" y1="-211.8" x2="183.3" y2="5.7"/>
							<line class="st5" x1="226.5" y1="-211.8" x2="226.5" y2="5.7"/>
							<line class="st5" x1="269.7" y1="-211.8" x2="269.7" y2="5.7"/>
							<line class="st5" x1="118.5" y1="-211.8" x2="118.5" y2="5.7"/>
							<line class="st5" x1="161.7" y1="-211.8" x2="161.7" y2="5.7"/>
							<line class="st5" x1="204.9" y1="-211.8" x2="204.9" y2="5.7"/>
							<line class="st5" x1="248.1" y1="-211.8" x2="248.1" y2="5.7"/>
							<line class="st5" x1="291.3" y1="-211.8" x2="291.3" y2="5.7"/>
						</g>
					</g>
					<g>
						<defs>
							<rect id="SVGID_15_" x="86.1" y="-211.1" width="216" height="216"/>
						</defs>
						<clipPath id="SVGID_16_">
							<use xlink:href="#SVGID_15_"  style="overflow:visible;"/>
						</clipPath>
						<g class="st11">
							<line class="st5" x1="96.9" y1="-427.8" x2="96.9" y2="-210.3"/>
							<line class="st5" x1="140.1" y1="-427.8" x2="140.1" y2="-210.3"/>
							<line class="st5" x1="183.3" y1="-427.8" x2="183.3" y2="-210.3"/>
							<line class="st5" x1="226.5" y1="-427.8" x2="226.5" y2="-210.3"/>
							<line class="st5" x1="269.7" y1="-427.8" x2="269.7" y2="-210.3"/>
							<line class="st5" x1="118.5" y1="-427.8" x2="118.5" y2="-210.3"/>
							<line class="st5" x1="161.7" y1="-427.8" x2="161.7" y2="-210.3"/>
							<line class="st5" x1="204.9" y1="-427.8" x2="204.9" y2="-210.3"/>
							<line class="st5" x1="248.1" y1="-427.8" x2="248.1" y2="-210.3"/>
							<line class="st5" x1="291.3" y1="-427.8" x2="291.3" y2="-210.3"/>
						</g>
					</g>
				</g>
			</g>
		</g>
	</g>
</g>
<g>
	<g>
		<defs>
			<rect id="SVGID_17_" width="250" height="250"/>
		</defs>
		<clipPath id="SVGID_18_">
			<use xlink:href="#SVGID_17_"  style="overflow:visible;"/>
		</clipPath>
		<path class="st12" d="M123.5,386.5C55,386.5-0.4,331-0.4,262.6c0-68.5,55.5-123.9,123.9-123.9c68.5,0,123.9,55.5,123.9,123.9
			C247.5,331.1,192,386.5,123.5,386.5z"/>
	</g>
</g>
</svg>
