<!--?xml version="1.0" encoding="UTF-8"?-->
<svg id="Layer_2" data-name="Layer 2" xmlns="http://www.w3.org/2000/svg" viewBox="0 0 245.99 176.91" width="245.99000549316406" height="176.91000366210938">
    <defs>
        <style>
            .cls-1 {
            fill: #fff;
            }
            @-webkit-keyframes animate-svg-fill-1{0%{fill:transparent}100%{fill:rgb(255,255,255)}}@keyframes animate-svg-fill-1{0%{fill:transparent}100%{fill:rgb(255,255,255)}}.svg-elem-1{-webkit-animation:animate-svg-fill-1 0.7s cubic-bezier(0.47,0,0.745,0.715) 0.8s both;animation:animate-svg-fill-1 0.7s cubic-bezier(0.47,0,0.745,0.715) 0.8s both}
        </style>
    </defs>
    <g id="Layer_1-2">
        <path class="cls-1 svg-elem-1" d="m156.48,0l-2.95,3.37c35.8,10.95,52.44,26.75,52.44,26.75-21.9-12-43.38-17.9-63.39-20.22-15.16-1.68-29.7-1.26-42.54.42-1.26,0-2.32.21-3.58.42-7.37.63-25.27,3.37-47.81,13.27-7.79,3.58-12.43,6.11-12.43,6.11,0,0,17.48-16.64,55.39-27.59L89.51,0s-28.85-.63-59.18,22.11c0,0-30.33,54.97-30.33,122.78,0,0,17.69,30.54,64.23,32.01,0,0,7.79-9.48,14.11-17.48-26.75-8-36.86-24.85-36.86-24.85,0,0,2.11,1.47,5.9,3.58.21.21.42.42.84.63.63.42,1.26.63,1.9,1.05,5.27,2.95,10.53,5.27,15.37,7.16,8.63,3.37,18.95,6.74,30.96,9.06,15.8,2.95,34.33,4,54.55.21,9.9-1.68,20.01-4.63,30.54-9.06,7.37-2.74,15.58-6.74,24.22-12.43,0,0-10.53,17.27-38.12,25.06,6.32,8,13.9,17.06,13.9,17.06,46.54-1.47,64.44-32.01,64.44-32.01,0-67.81-30.33-122.78-30.33-122.78C185.33-.63,156.48,0,156.48,0Zm-72.87,125.31c-11.79,0-21.48-10.53-21.48-23.38s9.48-23.38,21.48-23.38,21.69,10.53,21.48,23.38c0,12.85-9.48,23.38-21.48,23.38Zm76.87,0c-11.79,0-21.48-10.53-21.48-23.38s9.48-23.38,21.48-23.38,21.48,10.53,21.48,23.38-9.48,23.38-21.48,23.38Z"></path>
    </g>
</svg>
