
<svg fill="#ffffff" width="100%" height="100%" viewBox="0 0 32 32" version="1.1" xmlns="http://www.w3.org/2000/svg">
<defs>
    <style>

        @-webkit-keyframes animate-svg-fill-1 {
        0% {
        fill: transparent;
        }

        100% {
        fill: rgb(255, 255, 255);
        }
        }

        @keyframes animate-svg-fill-1 {
        0% {
        fill: transparent;
        }

        100% {
        fill: rgb(255, 255, 255);
        }
        }

        .svg-elem-1 {
        -webkit-animation: animate-svg-fill-1 0.7s cubic-bezier(0.47, 0, 0.745, 0.715) 0.8s both;
        animation: animate-svg-fill-1 0.7s cubic-bezier(0.47, 0, 0.745, 0.715) 0.8s both;
        }


    </style>
</defs>
<path d="M12.387 30.458c-0.224-0.097-0.408-0.192-0.586-0.298l0.024 0.013c-0.977-0.533-1.815-1.171-2.545-1.915l-0.002-0.002c-1.303-1.393-2.277-3.11-2.789-5.015l-0.019-0.083c-0.325-1.167-0.546-2.523-0.617-3.919l-0.002-0.045c-0.020-0.289-0.031-0.627-0.031-0.967 0-0.576 0.032-1.144 0.095-1.703l-0.006 0.069c0.163-1.665 0.664-3.184 1.434-4.529l-0.029 0.055c0.582-1.014 1.327-1.866 2.209-2.551l0.019-0.015c0.586-0.453 1.261-0.833 1.987-1.107l0.054-0.018c0.679-0.254 1.463-0.4 2.281-0.4 0.758 0 1.487 0.126 2.167 0.358l-0.047-0.014c0.036 0 0.036 0 0.056 0.037 0.019 0.019 0.056 0.019 0.075 0.037 0.056 0.020 0.13 0.056 0.206 0.092 0.345 0.18 0.633 0.354 0.909 0.544l-0.030-0.019c1.126 0.795 2.018 1.849 2.6 3.079l0.020 0.048c0.491 1.080 0.781 2.341 0.789 3.669v0.003c0.002 0.065 0.003 0.141 0.003 0.218 0 1.346-0.298 2.623-0.832 3.768l0.023-0.055c-0.726 1.505-1.86 2.716-3.257 3.518l-0.039 0.021c0.112 0.038 0.225 0.056 0.339 0.094 0.257 0.056 0.554 0.090 0.858 0.092l0.002 0c1.923-0.019 3.66-0.801 4.924-2.058l-0 0c0.242-0.224 0.463-0.463 0.665-0.718l0.010-0.013c0.261-0.305 0.514-0.64 0.744-0.991l0.023-0.037c0.264-0.408 0.52-0.881 0.74-1.374l0.027-0.068c0.263-0.595 0.483-1.291 0.625-2.015l0.011-0.064c0.147-0.787 0.232-1.692 0.232-2.617 0-0.41-0.017-0.816-0.049-1.217l0.003 0.053c-0.114-2.675-0.957-5.133-2.334-7.205l0.032 0.052c-0.237-0.34-0.465-0.633-0.706-0.914l0.013 0.015c-0.412-0.465-0.846-0.888-1.309-1.277l-0.019-0.015c-0.499-0.413-1.056-0.792-1.648-1.116l-0.055-0.028c-0.595-0.282-1.298-0.537-2.028-0.728l-0.086-0.019-0.375-0.075c-0.261-0.037-0.525-0.055-0.792-0.075-0.14-0.007-0.303-0.010-0.468-0.010-0.282 0-0.561 0.011-0.837 0.033l0.037-0.002c-0.97 0.066-1.871 0.216-2.741 0.444l0.101-0.023c-4.311 1.154-7.804 4.017-9.776 7.799l-0.040 0.085c-1 1.943-1.587 4.24-1.587 6.675 0 0.69 0.047 1.368 0.138 2.033l-0.009-0.077c0.161 1.379 0.504 2.636 1.006 3.809l-0.034-0.089c0.326 0.801 0.672 1.478 1.067 2.122l-0.036-0.063c1.406 2.226 3.308 4.020 5.557 5.259l0.078 0.040c0.765 0.435 1.656 0.834 2.586 1.148l0.11 0.032c0.282 0.092 0.562 0.187 0.861 0.262zM16.054 30.956c0.629-0.001 1.248-0.044 1.854-0.125l-0.072 0.008c1.463-0.194 2.789-0.572 4.026-1.116l-0.095 0.037c1.837-0.8 3.407-1.869 4.742-3.179l-0.002 0.002c1.232-1.208 2.254-2.625 3.010-4.193l0.039-0.090c0.609-1.262 1.057-2.727 1.266-4.267l0.009-0.076c0.081-0.597 0.127-1.287 0.127-1.988 0-0.842-0.067-1.668-0.195-2.473l0.012 0.089c-0.209-1.307-0.554-2.478-1.028-3.581l0.037 0.097c-0.338-0.783-0.694-1.447-1.1-2.076l0.033 0.055c-1.498-2.291-3.529-4.118-5.924-5.333l-0.087-0.040c-0.765-0.402-1.665-0.771-2.601-1.057l-0.114-0.030h-0.006c0.149 0.079 0.3 0.165 0.431 0.251 0.15 0.092 0.299 0.182 0.439 0.281 0.733 0.496 1.372 1.044 1.942 1.655l0.006 0.007c1.269 1.39 2.227 3.086 2.751 4.963l0.021 0.086c0.325 1.11 0.546 2.399 0.617 3.727l0.002 0.043c0.024 0.32 0.037 0.694 0.037 1.070 0 0.604-0.035 1.201-0.103 1.787l0.007-0.071c-0.191 1.683-0.737 3.207-1.562 4.541l0.027-0.047c-0.636 1.027-1.428 1.891-2.354 2.587l-0.024 0.017c-1.162 0.94-2.658 1.508-4.287 1.508-0.444 0-0.879-0.042-1.299-0.123l0.043 0.007c-0.358-0.085-0.669-0.196-0.965-0.335l0.030 0.013c-0.373-0.172-0.692-0.359-0.991-0.574l0.017 0.012c-0.592-0.399-1.103-0.855-1.546-1.371l-0.008-0.010c-0.527-0.625-0.969-1.346-1.291-2.129l-0.020-0.054c-0.374-0.94-0.599-2.028-0.617-3.166l-0-0.008c-0.004-0.104-0.007-0.227-0.007-0.35 0-1.553 0.398-3.012 1.097-4.282l-0.023 0.046c0.543-0.947 1.238-1.743 2.060-2.383l0.018-0.014c0.255-0.199 0.542-0.397 0.841-0.577l0.039-0.022 0.020-0.009c-0.429-0.102-0.921-0.161-1.426-0.161-0.132 0-0.262 0.004-0.392 0.012l0.018-0.001c-0.561 0.038-1.084 0.145-1.578 0.313l0.044-0.013c-0.49 0.163-0.911 0.353-1.308 0.581l0.035-0.018c-0.35 0.202-0.649 0.406-0.932 0.63l0.016-0.012c-0.264 0.225-0.525 0.45-0.769 0.694-1.322 1.421-2.23 3.244-2.521 5.266l-0.006 0.053c-0.104 0.714-0.163 1.538-0.163 2.376 0 0.461 0.018 0.918 0.053 1.37l-0.004-0.060c0.118 1.858 0.541 3.586 1.22 5.179l-0.039-0.103c0.451 1.040 1.016 1.936 1.697 2.73l-0.012-0.014c1.048 1.206 2.359 2.155 3.846 2.762l0.068 0.025c0.769 0.324 1.662 0.562 2.594 0.67l0.046 0.004c0.067 0.012 0.145 0.019 0.224 0.019 0.013 0 0.026-0 0.039-0.001l-0.002 0z" class="svg-elem-1"></path>
</svg>
