<svg width="185" height="28" viewBox="0 0 185 28" fill="none" xmlns="http://www.w3.org/2000/svg">
<path fill-rule="evenodd" clip-rule="evenodd" d="M39.7903 14.0136L29.499 0.964308C29.0655 0.401696 28.6403 0.309813 28.1746 0.914092L17.8675 13.9924L27.8436 23.009L28.8124 2.35127L29.7812 23.009L39.7903 14.0136Z" fill="url(#paint0_linear_15_2904)"/>
<path d="M47.0982 27.5L57.5574 5.18035C57.7818 4.69144 57.246 4.20289 56.7798 4.47132L41.1404 13.4603L30.9749 24.9122L47.0982 27.5Z" fill="url(#paint1_linear_15_2904)"/>
<path d="M10.5119 27.5L0.0526943 5.18035C-0.171667 4.69144 0.364134 4.20289 0.830313 4.47132L16.4697 13.4603L26.6353 24.9122L10.5119 27.5Z" fill="url(#paint2_linear_15_2904)"/>
<path d="M94.8259 2.94669L89.7325 20.2989L89.6856 20.4574H89.5212H89.4214H89.2542L89.2087 20.296L84.3794 2.94669H80.9662L76.1692 20.296L76.1252 20.4574H75.9564H75.8243H75.66L75.613 20.2989L70.5519 2.94669H67.2649L74.0326 25.721H77.6146L82.4116 8.56984L82.4556 8.40989H82.6229H82.755H82.9222L82.9677 8.56984L87.7647 25.721H91.3467L98.113 2.94669H94.8259Z" fill="#26126F"/>
<path d="M125.694 11.6263C128.174 11.6263 129.331 12.947 129.331 15.7923V25.7209H132.339V15.5267C132.339 11.2022 130.351 8.92332 126.59 8.92332C124.177 8.92332 122.28 9.89621 121.104 11.7393L120.749 12.2954L120.699 11.638L120.516 9.25496H117.69V25.7282H120.698V16.5289C120.698 15.0806 121.169 13.8524 122.058 12.9778C122.947 12.1032 124.208 11.6263 125.694 11.6263Z" fill="#26126F"/>
<path d="M148.946 1.95165V12.1414L148.543 11.5368C147.385 9.80087 145.476 8.88227 143.022 8.88227C140.776 8.88227 138.914 9.66586 137.625 11.148C136.337 12.63 135.649 14.8165 135.649 17.4579C135.649 20.0992 136.331 22.2725 137.622 23.7766C138.914 25.2807 140.763 26.0481 142.989 26.0481C145.454 26.0481 147.391 25.1281 148.578 23.3906L148.929 22.88L148.979 23.4963L149.162 25.7165H151.95V1.94431L148.946 1.95165ZM147.574 21.8117C146.665 22.8051 145.322 23.3084 143.586 23.3084C141.888 23.3084 140.598 22.8125 139.752 21.841C138.905 20.8696 138.491 19.4125 138.491 17.4901C138.491 15.5385 138.905 14.1151 139.756 13.1378C140.607 12.1605 141.907 11.6704 143.62 11.6704C145.332 11.6704 146.673 12.1678 147.582 13.1466C148.49 14.1253 148.949 15.581 148.949 17.4623C148.949 19.3435 148.486 20.8182 147.574 21.8117Z" fill="#26126F"/>
<path d="M163.501 8.91624C160.921 8.91624 158.905 9.64995 157.508 11.1174C156.111 12.5848 155.396 14.7037 155.396 17.4155C155.396 20.1816 156.13 22.3402 157.586 23.8281C159.042 25.3161 161.092 26.0484 163.733 26.0484C167.818 26.0484 170.483 24.2053 171.286 20.8507H168.351C167.617 22.5441 166.068 23.4041 163.726 23.4041C162.123 23.4041 160.841 22.9976 159.91 22.1978C158.98 21.3981 158.443 20.2403 158.33 18.7582L158.311 18.519H171.308C171.334 18.0289 171.362 17.3979 171.362 16.8829C171.362 14.3604 170.675 12.3808 169.319 11.0014C167.963 9.62206 166.007 8.91624 163.501 8.91624ZM168.31 16.3443H158.28L158.308 16.0992C158.48 14.5922 159.002 13.4344 159.863 12.6611C160.725 11.8878 161.926 11.4872 163.435 11.4872C166.59 11.4872 168.495 13.2173 168.53 16.1154V16.3384L168.31 16.3443Z" fill="#26126F"/>
<path d="M183.143 11.6587C183.457 11.6587 183.746 11.6792 184.024 11.7027V8.91462C181.045 8.95571 179.277 9.84056 178.135 11.8495L177.777 12.4805L177.724 11.757L177.541 9.24185H174.714V25.7151H177.723V16.9106C177.715 13.6749 179.796 11.6587 183.143 11.6587Z" fill="#26126F"/>
<path d="M110.05 23.4539L110.395 22.9858L110.446 23.5655L110.635 25.7152H113.199V14.466C113.199 10.9912 110.59 8.91624 106.221 8.91624C104.072 8.91624 102.3 9.4225 101.099 10.3837C99.9599 11.292 99.3377 12.6141 99.2819 14.2151H102.099C102.246 12.5261 103.714 11.562 106.155 11.562C108.744 11.562 110.289 12.6244 110.289 14.4029V16.1154H104.232C102.437 16.1154 101.034 16.5395 100.064 17.3759C99.0941 18.2123 98.6157 19.4024 98.6157 20.9359C98.6157 22.5045 99.1411 23.8047 100.135 24.6983C101.128 25.592 102.551 26.0557 104.265 26.0557C106.722 26.0484 108.833 25.1048 110.05 23.4539ZM101.426 20.8669C101.426 19.2131 102.573 18.2255 104.497 18.2255H110.289V19.5066C110.293 20.0862 110.163 20.6589 109.908 21.1796C109.654 21.7004 109.282 22.1549 108.822 22.5075C107.875 23.2485 106.575 23.6403 105.062 23.6403C101.898 23.6403 101.426 21.9029 101.426 20.8669Z" fill="#26126F"/>
<defs>
<linearGradient id="paint0_linear_15_2904" x1="28.7517" y1="23.009" x2="28.7517" y2="0.5" gradientUnits="userSpaceOnUse">
<stop stop-color="#6B57F9"/>
<stop offset="1" stop-color="#9787FF"/>
</linearGradient>
<linearGradient id="paint1_linear_15_2904" x1="35.135" y1="18.4187" x2="49.1781" y2="26.3958" gradientUnits="userSpaceOnUse">
<stop stop-color="#6B57F9"/>
<stop offset="1" stop-color="#9787FF"/>
</linearGradient>
<linearGradient id="paint2_linear_15_2904" x1="22.4751" y1="18.4187" x2="8.43201" y2="26.3958" gradientUnits="userSpaceOnUse">
<stop stop-color="#6B57F9"/>
<stop offset="1" stop-color="#9787FF"/>
</linearGradient>
</defs>
</svg>
