<?xml version="1.0" encoding="UTF-8"?>
<svg id="Layer_2" data-name="Layer 2" xmlns="http://www.w3.org/2000/svg" viewBox="0 0 1311.58 240.92">
  <defs>
    <style>
      .cls-1 {
        fill-rule: evenodd;
      }
    </style>
  </defs>
  <g id="Layer_1-2" data-name="Layer 1">
    <g>
      <polygon class="cls-1" points="0 240.45 80.2 240.45 96.57 196.19 59.74 120.79 0 240.45"/>
      <polygon class="cls-1" points="123.57 1.12 96.57 62.6 180.86 240.45 241.58 240.45 212.77 180.62 123.57 1.12"/>
      <polygon class="cls-1" points="785.01 46.85 821.84 122.26 881.58 2.59 801.38 2.59 785.01 46.85"/>
      <polygon class="cls-1" points="472 1.12 500.8 60.96 590 240.45 617.01 178.98 532.72 1.12 472 1.12"/>
      <polygon class="cls-1" points="713.34 1.59 713.58 1.12 633.38 1.12 617.01 45.38 653.84 120.79 682.64 63.1 771 240.92 798.01 179.45 713.72 1.59 713.34 1.59"/>
      <polygon class="cls-1" points="1231.38 2.59 1215.01 46.85 1251.84 122.26 1311.58 2.59 1231.38 2.59"/>
      <polygon class="cls-1" points="902 1.12 930.8 60.96 1020 240.45 1047.01 178.98 962.72 1.12 902 1.12"/>
      <polygon class="cls-1" points="1143.34 1.59 1143.58 1.12 1063.38 1.12 1047.01 45.38 1083.84 120.79 1112.64 63.1 1201 240.92 1228.01 179.45 1143.72 1.59 1143.34 1.59"/>
      <path class="cls-1" d="m361.8,0c-66.4,0-120.23,53.83-120.23,120.23s53.83,120.23,120.23,120.23,120.23-53.83,120.23-120.23S428.2,0,361.8,0Zm0,193.26c-40.34,0-73.03-32.7-73.03-73.03s32.7-73.03,73.03-73.03,73.03,32.7,73.03,73.03-32.7,73.03-73.03,73.03Z"/>
    </g>
  </g>
</svg>